#!OML:ASF E:/inclinewalkrobotboard/Project1/Captureday1/Session1/subject1.ASF
:FULLY-SPECIFIED
:DEGREES
263
root 0 0 0 1.8096911555563322 -10.323151997284082 0.9378042157438563
lowerback -0.05333427193102391 -1.5815459483160876 -2.7043037433907955
upperback -0.5574339621542532 -2.0667278389410813 1.8344196712256815
thorax -0.45271834446541714 -1.026633215540128 3.335771761533528
lowerneck -25.767807450325567 -1.9279480234684594 -7.594427534104231
upperneck 24.08893692658333 -0.24943920919681373 2.602923034140456
head 12.358033802233958 -0.6122157080886744 2.3186391073851635
rclavicle -2.433966581141334E-15 -2.3863868101336065E-15
rhumerus -30.42937364593476 -0.25425061439664276 -82.31978327369728
rradius 31.940323722231962
rwrist 17.99801817618618
rhand -18.566610655994676 9.396355076959683
rfingers 7.125019999999937
rthumb 7.7169776818855595 -20.379103979188645
lclavicle -5.896237161627914E-15 2.318189429871787E-15
lhumerus -21.7264738895821 -1.3423967547498759 92.06143079271335
lradius 61.42058074152989
lwrist 2.095381924372443
lhand -28.37106428732752 20.70844335307785
lfingers 7.12502000000001
lthumb -1.779650235692575 50.69766729624103
rfemur 16.058264290125464 7.471995292022997 35.30695033464576
rtibia 32.49351579708188
rfoot -16.532829290049033 -3.6056327869244216
rtoes -6.282041001314728
lfemur -31.28548292106768 -4.700605912640135 -8.808305394714898
ltibia 22.639352956345185
lfoot -3.949647902914874 4.098018475680784
ltoes -2.6035501751771477
264
root 0 0 0 1.8048517644118582 -10.362070808122994 0.9361916106142895
lowerback -0.11035553983073076 -1.5849110129391382 -2.7173484390296645
upperback -0.5809469501003058 -2.070437404717799 1.8008654408290985
thorax -0.44706179349712616 -1.0270751187871348 3.307751179593054
lowerneck -25.626854408313633 -1.9115977544980292 -7.632640879649403
upperneck 24.543398928504097 -0.2239648972123377 2.564474455382257
head 12.499142565898685 -0.6198679745090352 2.319724827003376
rclavicle -3.49702285822555E-15 -2.2369543795781335E-15
rhumerus -30.52442960141972 -0.23818819649833056 -82.14663505960351
rradius 31.815428561242975
rwrist 18.00153959455271
rhand -18.584928824606887 9.44429532629249
rfingers 7.125019999999935
rthumb 7.698974737437029 -20.330045568388822
lclavicle -7.545290519413484E-15 2.5854193123239087E-15
lhumerus -21.335511252680963 -0.7846370911240479 91.90109005763678
lradius 61.25867886553295
lwrist 1.9781060187523973
lhand -28.44076051623028 20.713137629337467
lfingers 7.12502000000001
lthumb -1.8427843681000295 50.69482724969783
rfemur 14.087908173159466 5.760405546896063 32.276230059742424
rtibia 41.379749871973836
rfoot -9.583733651158221 -1.1334453719423125
rtoes -5.900639269600174
lfemur -29.942968860442505 -4.769283920091228 -9.718878834353834
ltibia 23.31925760986235
lfoot -3.321453818001471 2.992923069681786
ltoes -1.8271797118079647
265
root 0 0 0 1.8019213775725222 -10.430123511806801 0.9310494754570494
lowerback -0.1742860480104913 -1.6003264659805967 -2.723055171901829
upperback -0.5910220831333896 -2.0896265522392503 1.7628531221004684
thorax -0.4211907011503412 -1.0362473461694461 3.272176689812593
lowerneck -25.48092938228521 -1.887302220953559 -7.678159492459632
upperneck 25.139267352325998 -0.17749623193857 2.4897656790478293
head 12.687900570012783 -0.625721387511027 2.313181566069567
rclavicle -4.92686094092973E-15 -1.529730658981837E-15
rhumerus -30.693361316213284 -0.47262782679266113 -81.97191147326761
rradius 31.666422867729402
rwrist 18.090739477045666
rhand -18.54446555549677 9.453035990280208
rfingers 7.125019999999934
rthumb 7.738586263440975 -20.32331196845745
lclavicle -8.052728941148667E-15 2.989100725513242E-15
lhumerus -20.771355701330048 -0.25716586940923314 91.68343145543221
lradius 61.134700585273045
lwrist 1.8100086559319655
lhand -28.56923856499821 20.720229354812425
lfingers 7.125020000000008
lthumb -1.9626973052724255 50.69090484147353
rfemur 7.213513394939998 3.836035327875562 27.20966413134356
rtibia 54.29430519137462
rfoot 0.22789378508047342 1.0662976630041783
rtoes -1.0341996338059785
lfemur -26.555615453198378 -4.318916107230035 -12.789032874427168
ltibia 27.848942025053265
lfoot -2.0488569458020898 -0.4063510843972873
ltoes 1.4622160945656049
266
root 0 0 0 1.8156481291794242 -10.541633618000764 0.9197449496393157
lowerback -0.2544603441781783 -1.6376999672396104 -2.717607888066087
upperback -0.5616699549318095 -2.1381201928139033 1.7109226242701006
thorax -0.34037636601001975 -1.062348149332268 3.2157748812103035
lowerneck -25.307877816124886 -1.8586650713326056 -7.7514344046735975
upperneck 26.070390036972512 -0.11534367915077215 2.371689861603633
head 12.984871273936667 -0.6364725088840398 2.3016681169850277
rclavicle -6.9707096558058404E-15 -1.367631471780344E-16
rhumerus -31.00021922056077 -1.163468504703542 -81.75180296929639
rradius 31.442318774733288
rwrist 18.316874419393976
rhand -18.395495741537196 9.413326545684573
rfingers 7.1250199999999335
rthumb 7.883598248691545 -20.36637149247132
lclavicle -8.593289963808116E-15 3.282404389350758E-15
lhumerus -20.386935326527443 -0.04182212687319886 91.53633998455551
lradius 61.06825523828184
lwrist 1.7330260008161513
lhand -28.646118451909516 20.701528038229426
lfingers 7.125020000000006
lthumb -2.034188568158685 50.6658883248437
rfemur -4.394752177162927 2.3995992723744903 24.120846270963607
rtibia 63.42827167734605
rfoot 9.43469257318331 -0.44094619438189975
rtoes 7.9512110469499255
lfemur -21.529653396220993 -3.4024161152311496 -17.167486446109958
ltibia 34.84726544758295
lfoot -1.7250171795784874 -4.483146577280678
ltoes 5.619708685540196
